<svg id="Laag_1" data-name="Laag 1" xmlns="http://www.w3.org/2000/svg" viewBox="0 0 1147.28 1147.26"><defs><style>.cls-1,.cls-3,.cls-4,.cls-5,.cls-6,.cls-7,.cls-8,.cls-9{fill:none;stroke:#fff;}.cls-1{stroke-width:3.93px;}.cls-2{fill:#fff;}.cls-3{stroke-width:7.86px;}.cls-4{stroke-width:2.06px;}.cls-5,.cls-8{stroke-width:1.89px;}.cls-6{stroke-width:0.94px;}.cls-7{stroke-width:2.83px;}.cls-8{stroke-linecap:round;stroke-linejoin:round;}.cls-9{stroke-width:2.08px;}</style></defs><title>WIT_Kanselarij Beeldmerk 2014</title><path class="cls-1" d="M599.73,1171.7c315.72,0,571.67-255.94,571.67-571.66S915.45,28.37,599.73,28.37,28.06,284.32,28.06,600,284,1171.7,599.73,1171.7Z" transform="translate(-26.09 -26.4)"/><path class="cls-2" d="M599.73,48.92C295.36,48.92,48.61,295.66,48.61,600s246.75,551.12,551.12,551.12S1150.85,904.41,1150.85,600,904.1,48.92,599.73,48.92Zm0,1082.48C306.27,1131.4,68.37,893.5,68.37,600S306.27,68.67,599.73,68.67,1131.09,306.57,1131.09,600,893.19,1131.4,599.73,1131.4Z" transform="translate(-26.09 -26.4)"/><path class="cls-2" d="M588,1047.68c-1.31-3-2-4.79-2-8,0-3.88,2.47-6.67,5.62-6.63,3.3,0,5.36,3.59,5.31,7.13,0,3.7-1.9,8.62-3,11.79-.31,1.05-1.4,4-1.41,5.45a1.43,1.43,0,0,0,1.34,1.43c1.35,0,5.64-7.16,6.4-8.57,1.84-3,3.67-6.3,7.13-6.27,2.85,0,5.37,2.71,5.33,6.07-.14,10.76-17.8,7.37-17.84,11.25,0,2.12,4.18,2.34,5.07,2.53l4.35.58c4,.58,9.13,1.7,9.06,7.69,0,3.71-2.63,6.14-5.48,6.11-3.89,0-7.57-6.27-9.78-9.3-.58-.89-2.8-4.62-4.29-4.64a1.3,1.3,0,0,0-1.22,1.4,20.89,20.89,0,0,0,1.15,4.42l1.74,5c1,2.49,1.9,4.44,1.86,7.26,0,3.88-2.18,6.67-5.62,6.63s-5.21-3.42-5.18-6.95c.08-5.47,4.06-12.83,4.1-15.82,0-.71-.13-1.59-.88-1.6-2.85,0-7.23,14.56-13.83,14.48-3.15,0-5.21-2.89-5.17-6.42.13-10.58,18.24-7.36,18.28-11.06,0-1.24-1.63-1.61-2.53-1.62-2.39-.38-8.52-1.34-11.07-2.08a6.91,6.91,0,0,1-5.16-7.12c0-3.53,2.47-6,5.32-5.94,4.2.05,8,6.8,10.37,10,.45.71,2.5,4.08,3.56,4.1a1.62,1.62,0,0,0,1.37-1.57,36.19,36.19,0,0,0-1-4.25l-1.89-5.49Z" transform="translate(-26.09 -26.4)"/><path class="cls-2" d="M450.12,1002c-.89-2.4-2.77-7.92-4.18-10a8.21,8.21,0,0,0-4.4-3c-1.8-.66-3-1.48-2.3-4,.9-3.25,4.4-2.61,6.37-2.07,6.31,1.74,12.45,4.09,18.75,5.83,6.05,1.67,12,2.63,17.92,4.26a3.44,3.44,0,0,1,2.56,4.54c-1.35,4.94-7-.11-8.05,3.6-.6,2.17.87,5.57,1.54,7.25l11.35,32.23c.21.73,1.52,4.75,2.3,5,1.32.36,2.12-3.58,2.16-4.23l5.79-21c2.51-9.13,4.06-12.69-3.8-16.52-1.62-.78-4-1.93-3.23-4.71.64-2.32,2.26-2.54,4-2.07,6.83,1.88,13.24,4.31,20.07,6.19,6.31,1.74,12.79,2.86,19.1,4.59,1.84.51,3,1.48,2.34,3.8-.68,2.48-2.86,2.71-4.52,2.58-9.15-.68-9.48,2.06-12.24,12.11l-15.11,54.9c-2.6,9.44-4.49,13.24,3.46,17.25,1.49.74,4.08,1.62,3.35,4.25-.68,2.47-2.12,2.57-4,2.07-6.83-1.88-13.24-4.31-20.07-6.19-6.31-1.74-12.79-2.85-19-4.55-1.84-.51-3.16-1.37-2.47-3.84s2.86-2.2,4.53-2.08c9.4.76,9.6-2.52,12.45-12.88l5.41-19.64c.26-.43,1.25-3,.19-3.27-.39-.11-.91.25-1.21.32-1,.56-2,1.27-3.09,2l-7.53,4.75-19.3,13.65c-1.83,1.49-6.4,4.22-7.13,6.86-.59,2.17,1.6,2.93,3,3.49,2.07.73,5.61,1.71,4.63,5.27-.64,2.32-2.09,1.92-3.92,1.41L424,1081.32c-1.84-.5-3.89-.74-3.17-3.36,1.07-3.87,5.75-2.41,8-1.8,8.14,2.24,12.76-.15,20.33-5.05l8.22-5.22c2.22-1.39,11.8-6.9,12.48-9.38.34-1.24-.59-3-1-4.1L450.12,1002Z" transform="translate(-26.09 -26.4)"/><path class="cls-2" d="M371.71,1050.44c-4.16,3.79-5.64,6.27-10.46,3.72-4-2.1-3-3.74-2.3-8.48l11.66-82a51.17,51.17,0,0,0,.81-8.82c-.17-3.18-.81-4.6-3.14-6-2-1.23-4.48-2-2.76-5.27,1.5-2.83,4-1.7,5.68-.81,5.05,2.68,9.58,5.8,14.4,8.35,6,3.19,12.11,5.68,17.9,8.75,1.68.9,3.7,2.33,2.27,5-2.55,4.81-8.88-3.62-11.59,1.48a20.76,20.76,0,0,0-1.65,6l-2.22,13.52c-1.06,5.8-1.27,5.32,3.06,7.62l15.79,8.35c4.22,2.23,3.71,2.33,7.56-1.44,3.11-3.25,7.31-7.38,9.48-11.49,5.33-10.07-9.83-10.28-6.45-16.66,1.35-2.56,3.86-1.77,5.55-.88,3.73,2,7.44,4.31,11.18,6.28s7.74,3.74,11.47,5.72c1.81,1,3.52,2.4,2.17,5s-3.24,1.74-5,1.19c-3.87-1.14-5.23-1.5-9.06,1.37-3.37,2.57-9.44,8.79-12.87,12.06l-17,16-34.54,31.44Zm31-36.61a25.15,25.15,0,0,0,3.26-3.53c1.05-2-1.78-2.76-2.86-3.33l-10.48-5.55c-.85-.45-3.68-2.67-4.58-1a26.5,26.5,0,0,0-.8,4.12L382.32,1033l20.35-19.18Z" transform="translate(-26.09 -26.4)"/><path class="cls-2" d="M264.2,954.09c-2.07,2.45-5.48,6.5-6.51,9.41-1.34,3.91,0,6.53,2.11,8.91,1.57,1.74,4.38,2.86,2.1,5.55s-4.46.64-6-.68c-3.13-2.64-5.94-5.44-9.07-8.07s-6.35-4.94-9.37-7.49c-1.57-1.32-2.61-2.82-.85-4.91,2.48-2.94,5.3.91,7.28,2.16,5.52,3.39,9.85-3,13.89-7.8l49-58.11c2.89-3.44,4.23-6.08,7.78-3.09,2.6,2.2,1.79,5.91,1.38,9.35l-9.83,95.16L340.24,954c2.47-2.94,7.85-9.31,9.3-12.51,2.07-4.55.49-7.14-2.11-9.76-1.36-1.35-4.48-3.57-2.21-6.27,1.77-2.08,3.84-1.17,5.3.06,3.34,2.82,6.05,5.94,9.38,8.75s7.09,5.14,10.32,7.86c1.46,1.23,2.29,3,.64,5-2.28,2.7-4.68.25-6.44-1-2.4-1.8-4.38-2-7.48,0-4.35,2.83-9.63,9.51-13.15,13.68l-32.16,38.13c-4,4.78-9.11,9.94-4.2,14.7,1.56,1.54,4.16,3.31,1.89,6-1.87,2.21-3.95.45-5.41-.78l-18.34-15.47c-4.18-3.51-3.66-3.49-3.06-9.49l6.82-68.54L264.2,954.09Z" transform="translate(-26.09 -26.4)"/><path class="cls-2" d="M202.69,888.52c2-1.61,4.58-4,6.46-1.7,1.46,1.8.22,3.85-1.06,5.59-5.37,7.65-9.41,16.17-3.77,23.18,4.45,5.51,13.66,8.77,20.91,2.93,6.62-5.34,4.92-12.55,3-18.53L226,892.87c-4.56-13.84-5-27.36,9.53-39a36.68,36.68,0,0,1,26.83-7.62c9.82,1.19,17.51,6.38,23.24,13.5,4.1,5.09,9.28,14.58,10.33,21.26.74,5-1.14,6-5.26,9.32l-6.87,5.54c-2,1.6-6.4,5.86-8.45,3.31s1.26-6.1,3-8.34c3.23-4.18,6-7.64,6.94-12.6,1-5.7-1.24-10.74-4.4-14.67-5.39-6.69-15.89-11-24.88-3.77-10.12,8.15-5.67,19.8-3.49,28.9,2.64,11.71,5.32,26.54-7.17,36.6-16.48,13.29-37.62,4.94-47.47-7.26-3-3.72-7.22-11.52-7.88-16.42-.38-3,1.87-4.32,4.25-6.23l8.48-6.84Z" transform="translate(-26.09 -26.4)"/><path class="cls-2" d="M187.48,833.1c4.22-2.33,6.73-3.4,4.43-7.59-1.38-2.5-4.28-7.75-6.1-9.71-2.55-3-6.42-2.69-10.6-1.63-2.09.53-5.36,1.24-6.54-.91-1.05-1.91.37-3.32,2.33-4.4,4.06-1.93,8.28-4.25,12.34-6.18,3.93-2.17,8-4.74,11.82-7.14,1.83-1,4.2-1.69,5.32.34,3.16,5.73-12.63,9-5.65,21.64l3.12,5c2.45,3.79,4.28,2.46,8.08.37l16.43-9.06c3.52-1.93,8.65-4.92,10.53-8.46,2-3.73.78-8.22-1-11.43-4.61-8.36-12.42-13.24-23.38-12.18-2.36.37-6,.81-7.15-1.34-1.06-1.91-.47-3.17,1.78-4.41a71.76,71.76,0,0,1,6.84-2.53l12-4.88c1.75-.81,2.73-1,3.59.51,4.87,8.84,9.18,18,14.05,26.81,6.33,11.46,13.21,22.61,19.53,34.08.92,1.67,1.15,3.09-1,4.25s-4.08-.08-5.14-1.36c-6-7.27-8.71-5.48-17.14-.83l-49.86,27.5c-8.28,4.57-12.84,6.61-10,15,.58,1.7,1.13,4.36,0,5-2.25,1.24-4,.66-5-1-3.95-7.16-7.21-14.4-11.16-21.56-6.85-12.42-14.25-24.52-21.17-37.06-1.45-2.63,1.27-3.35,3.8-4.75L154,808.91c2.11-1.16,4.15-2.76,5.67,0,1,1.8-.67,4.11-1.75,5.8a39.13,39.13,0,0,0-4.28,9.52c-1.28,4,.61,7.75,2.39,11,1.12,2,4.75,8.59,7,9.68,1.77.89,5.5-1.32,7.18-2.25l17.28-9.52Z" transform="translate(-26.09 -26.4)"/><path class="cls-2" d="M145.43,779c-9.28,3.13-13.49,3.69-12.37,12.52.22,1.65.94,4.28-1.64,5.16-2.43.81-3.32-.32-3.94-2.13-2.27-6.72-3.84-13.38-6.1-20.1-2.1-6.2-4.8-12.19-6.84-18.27-.61-1.8-.64-3.38,1.8-4.2s3.42,1.14,4.25,2.59c4.64,8.22,7.46,6.55,17.64,3.11l54.1-18.27c8.05-2.72,13.64-5.75,10.49-15-6.33-18.74-25-12.73-26.69-17.9-.71-2.07.54-2.92,2.66-3.63,5.93-2,12.73-2.43,18.93-4.09,4.35-1.17,3.76.6,4.81,3.7,3.32,9.82,6,19.84,9.34,29.65,3.41,10.08,7.51,20.21,10.9,30.28.61,1.8.75,3.2-1.54,4s-4.15-.75-5-2.2c-4.55-8-6.85-6.75-16.72-3.42L145.43,779Z" transform="translate(-26.09 -26.4)"/><path class="cls-2" d="M101.94,678.31c-5.51-1.16-8.38-.9-9.14-6.3-.61-4.45,1.31-4.58,5.53-6.83l73.34-38.56a52,52,0,0,0,7.63-4.51c2.47-2,3.26-3.34,3-6.07-.15-2.32-1-4.82,2.66-5.32,3.17-.45,3.71,2.23,4,4.13.8,5.67.91,11.16,1.66,16.56.94,6.75,2.49,13.15,3.39,19.63.26,1.89.28,4.37-2.74,4.78-5.4.75-2.27-9.31-8-8.52a20.77,20.77,0,0,0-5.85,2.2l-12.27,6.11c-5.31,2.53-5.05,2.08-4.38,6.94l2.46,17.69c.66,4.72.28,4.36,5.6,5.27,4.45.62,10.26,1.6,14.87,1,11.29-1.57,2.59-14,9.74-15,2.86-.4,3.69,2.1,4,4,.58,4.18.87,8.55,1.45,12.74s1.5,8.46,2.08,12.65c.28,2,.11,4.25-2.75,4.65-2.7.38-3.3-1.6-3.86-3.32-1.34-3.81-1.85-5.11-6.42-6.54-4.06-1.23-12.66-2.5-17.31-3.37l-23-4.38-45.72-9.6Zm47.8,3.67a25.46,25.46,0,0,0,4.78.58c2.23-.31,1.2-3.06,1-4.28l-1.64-11.75c-.12-.94,0-4.55-1.89-4.28a25.45,25.45,0,0,0-3.8,1.77l-25.93,12.69L149.74,682Z" transform="translate(-26.09 -26.4)"/><path class="cls-2" d="M176.51,537.23c6.25-2.19,9.65-2.65,11.48-8.55.59-1.6,1.31-2.78,3.55-2.64,2.72.18,2.89,2.51,2.77,4.28-.25,3.81-.8,7.46-1,11.27s-.17,7.5-.42,11.31c-.2,3.13-2.14,3.27-5.42,4.29l-30.1,10.62c-3.29,1.15-9.87,3.46-12.25,5.49-1.52,1.13-1.8,2.89-1.9,4.52-.16,2.59,2,2,5.16,2.25l21.29,1.38c9.44.61,13.25,1.4,15.41-7.06.43-1.75,1.07-4.3,4-4.12,2.4.16,2.94,1.69,2.83,3.46-.46,7.08-1.54,13.84-2,20.91-.42,6.53-.21,13.1-.63,19.63-.12,1.9-.84,3.23-3.26,3.07s-3.22-2.26-3.44-3.92c-1.18-9.09-3.93-8.86-14.33-9.53l-57-3.69c-9.44-.61-13.87-1.72-16,6.48-.44,1.75-.44,4.34-3.16,4.17-2.56-.17-3.27-1.71-3.13-3.76.4-6.26,1.44-12.47,1.85-18.73.68-10.62.71-21,1.4-31.47.38-5.85,1.59-12.19,6.06-16.68,5-4.87,12.21-7.27,20.05-6.76,15.36,1,21.5,12.87,22,24.66,1.31-7.71,7.43-10.45,15-13.24l21.24-7.64Zm-47.07,41.63c4,.26,7.16,1.28,7.39-2.39.26-4.08-.25-8.48-3.08-12.09-3.25-4.45-9.35-7-15.26-7.41-10.25-.66-20.36,4.15-21,13.67-.14,2,.58,5.77,2.8,6.33a69.87,69.87,0,0,0,7.52.48l21.61,1.4Z" transform="translate(-26.09 -26.4)"/><path class="cls-2" d="M157.15,487.54c9.23,2.1,8.92.85,8.75-.09,1.51,8.25,1.23,7.73,2.5,15.85,1.24,7.94,1.26,7.65,2.17,12,.12.57-8.25-3.48-18.41-5.8l-30.05-7c-9.54-2.17-13.42-3.89-17.08,4.22-.68,1.52-1.44,4.15-4.1,3.54-2.5-.57-2.66-2-2.24-3.87,1.57-6.91,3.71-13.42,5.28-20.33,1.45-6.38,2.27-12.91,3.7-19.15.42-1.86,1.22-3.22,3.72-2.65s2.33,2.77,2.28,4.43c-.34,9.43,2.95,9.48,13.42,11.86l30.05,7Z" transform="translate(-26.09 -26.4)"/><path class="cls-2" d="M137.69,444.83c-9.21-3.29-12.87-5.46-17.46,2.16-.85,1.43-1.92,3.95-4.48,3s-2.41-2.31-1.77-4.11c2.39-6.67,5.27-12.88,7.66-19.55,2.2-6.16,3.8-12.54,6-18.58.65-1.8,1.6-3,4-2.18s2,3,1.74,4.67c-1.46,9.33,1.79,9.76,11.91,13.38L167,431.25c15.21,5.8,26.3,11,38.67,20.34,16.44,12.42,10.75,47.5-1.26,54.57-10.4,6.14-22.2,11.79-23.4,8-1.58-5-2.75-18.62-4.52-24.29-.88-2.8,5.26,5,14.5,4.06,2.4-.24,4-1.91,5.49-3.81,4.81-6,2.72-20.27-3.74-24a73.72,73.72,0,0,0-15.63-7.34l-39.46-13.92Z" transform="translate(-26.09 -26.4)"/><path class="cls-2" d="M179,351.73c-6.7-4.69-11.06-8.25-15-1.52-1,1.77-2,4.78-5,2.66-6-4.23,13.86-35.41,17.3-40.32,7.51-10.72,16.32-19.36,29.64-23.84,14-4.65,29.68-2.66,43.34,6.91,27.05,19,27.9,52.7,13.11,73.8-6.57,9.38-13.67,18.39-20.25,27.76-1.41,2-2.45,4.61-3.94,6.73-1,1.45-2.66,2.13-4.76.66s-1.06-3.24-.45-5c3-8.53.63-9.55-8.17-15.72L179,351.73Zm55.6,11.51c8.8,6.17,16.23,12.05,22.73,2.78,5.16-7.37,4.68-17.86.41-26.85-4.06-9-12.74-17.59-21.14-23.48-17.48-12.25-41.83-17.17-53.42-.65-5.63,8-3.61,9.62,5.32,15.88l46.1,32.32Z" transform="translate(-26.09 -26.4)"/><path class="cls-2" d="M274.71,256.37c3.28,3.52,4.94,5.71,8.43,2.45,2.1-1.95,6.48-6,7.94-8.27,2.26-3.19,1-6.88-1-10.68-1-1.9-2.5-4.9-.71-6.57,1.6-1.49,3.3-.45,4.84,1.19,2.86,3.47,6.14,7,9,10.47,3.06,3.29,6.53,6.63,9.8,9.73,1.41,1.53,2.66,3.66,1,5.24-4.79,4.46-11.79-10.06-22.37-.22l-4.07,4.23c-3.08,3.3-1.35,4.76,1.6,7.93l12.79,13.74c2.73,2.93,6.87,7.19,10.76,8.17,4.1,1,8.15-1.24,10.86-3.75,7-6.5,9.81-15.27,6.12-25.64-.93-2.2-2.23-5.59-.44-7.27,1.6-1.49,3-1.22,4.71.66a72.65,72.65,0,0,1,4.12,6l7.65,10.42c1.21,1.5,1.67,2.39.37,3.6-7.39,6.87-15.2,13.28-22.59,20.15-9.58,8.91-18.73,18.3-28.3,27.22-1.4,1.3-2.73,1.88-4.37.12s-.91-4,.07-5.33c5.59-7.61,3.21-9.77-3.35-16.81l-38.79-41.69c-6.45-6.93-9.54-10.85-17-6.07-1.52,1-4,2.15-4.84,1.21-1.75-1.88-1.63-3.75-.23-5,6-5.57,12.22-10.49,18.2-16.06,10.37-9.66,20.32-19.79,30.8-29.54,2.2-2,3.56.41,5.52,2.53L290,218c1.64,1.76,3.69,3.36,1.39,5.5-1.5,1.39-4.14.35-6-.29a39.43,39.43,0,0,0-10.27-1.83c-4.18-.28-7.37,2.48-10.07,5-1.69,1.58-7.18,6.69-7.69,9.14-.43,1.93,2.62,5,3.93,6.42l13.44,14.44Z" transform="translate(-26.09 -26.4)"/><path class="cls-2" d="M406.23,218.28c5.41,3.82,7.75,6.33,13.62,4.4,1.64-.45,3-.55,4.21,1.36,1.43,2.32-.37,3.81-1.87,4.74-3.25,2-6.55,3.67-9.8,5.68s-6.2,4.22-9.45,6.22c-2.66,1.65-3.91.16-6.64-1.93l-26.11-18.37c-2.85-2-8.54-6-11.58-6.8-1.8-.58-3.39.21-4.79,1.07-2.2,1.36-.52,2.78,1.17,5.51l11.22,18.15c5,8,6.54,11.61,14.69,8.45,1.67-.66,4.13-1.61,5.65.84,1.27,2,.32,3.38-1.18,4.32-6,3.73-12.16,6.76-18.19,10.49-5.57,3.44-10.8,7.43-16.36,10.87-1.63,1-3.12,1.17-4.38-.87s0-3.94,1.19-5.08c6.73-6.23,4.94-8.33-.54-17.2l-30-48.57c-5-8-6.65-12.3-14.56-9.29-1.67.66-3.79,2.16-5.24-.16s-.49-3.65,1.24-4.73c5.34-3.3,11-6.05,16.34-9.35,9-5.59,17.52-11.59,26.45-17.11,5-3.08,10.86-5.77,17.11-4.73,6.86,1.23,13,5.73,17.13,12.41,8.11,13.1,2,25-7.31,32.24,7-3.41,12.82,0,19.49,4.55l18.53,12.86ZM345,204.07c2.1,3.41,3.09,6.57,6.23,4.63,3.48-2.15,6.76-5.12,8.06-9.51,1.74-5.22.3-11.69-2.82-16.74-5.4-8.73-15.19-14.18-23.3-9.16-1.74,1.07-4.37,3.83-3.53,6a68.06,68.06,0,0,0,4,6.41L345,204.07Z" transform="translate(-26.09 -26.4)"/><path class="cls-2" d="M508.13,121.33c-.8-3.11-2.1-8.23-3.87-10.76-2.41-3.36-5.33-3.77-8.49-3.46-2.32.26-4.85,1.9-5.73-1.52-.84-3.26,2.07-4,4.05-4.51,4-1,7.87-1.68,11.84-2.69s7.71-2.3,11.54-3.28c2-.5,3.82-.48,4.49,2.17,1,3.73-3.82,3.79-6,4.67-6,2.52-3.28,9.77-1.73,15.84l18.81,73.66c1.11,4.35,2.48,7-2,8.13-3.3.84-5.85-2-8.42-4.31L450.9,132,464,183.24c1,3.73,3,11.81,4.78,14.84,2.5,4.32,5.52,4.55,9.17,3.95,1.89-.31,5.51-1.57,6.38,1.85.67,2.64-1.28,3.8-3.13,4.27-4.23,1.08-8.35,1.47-12.58,2.55s-8.29,2.78-12.38,3.82c-1.86.47-3.77.13-4.41-2.35-.88-3.42,2.51-4,4.58-4.65,2.86-.9,4.18-2.39,4.36-6.08.22-5.19-2.14-13.36-3.49-18.64l-12.34-48.33c-1.54-6.06-2.8-13.19-9.53-12-2.15.38-5.11,1.47-6-1.95-.71-2.8,1.93-3.47,3.78-3.94l23.25-5.94c5.28-1.35,5-.94,9.51,3l51.83,45.37-9.64-37.76Z" transform="translate(-26.09 -26.4)"/><path class="cls-2" d="M574.56,127.24c.22,4.81.08,7.54,4.84,7.32,2.86-.13,8.85-.41,11.41-1.17,3.78-1,5.25-4.58,6.14-8.79.45-2.11,1.26-5.36,3.71-5.47,2.18-.1,2.82,1.8,2.92,4-.07,4.5.15,9.31.08,13.81.21,4.49.71,9.28,1.18,13.76.09,2.08-.34,4.51-2.66,4.62-6.53.3-2.47-15.3-16.91-14.64l-5.85.59c-4.48.53-4.1,2.76-3.9,7.08l.86,18.75c.18,4,.6,9.93,2.93,13.19,2.47,3.42,7,4.33,10.7,4.16,9.54-.44,17.36-5.29,21.26-15.59.71-2.28,1.92-5.71,4.37-5.82,2.18-.1,3,1,3.16,3.55.07,1.44-.56,5.64-.75,7.26l-.91,12.89c0,1.93-.28,2.9-2,3-10.08.46-20.19.29-30.27.75-13.07.6-26.12,1.85-39.19,2.45-1.9.09-3.29-.33-3.41-2.73-.11-2.56,1.89-3.62,3.5-4,9.18-2.19,8.77-5.38,8.32-15l-2.62-56.88c-.44-9.45-.25-14.44-9-15.64-1.79-.24-4.41-.92-4.47-2.2-.12-2.56,1.19-3.91,3.09-4,8.17-.38,16.09-.1,24.27-.48,14.17-.65,28.29-1.95,42.6-2.61,3-.14,2.43,2.62,2.57,5.5l.6,13c.11,2.4.63,4.95-2.5,5.09-2,.1-3.39-2.41-4.42-4.13a39.12,39.12,0,0,0-6.65-8c-3-2.91-7.22-2.88-10.91-2.71-2.31.11-9.8.45-11.78,2-1.58,1.2-1.24,5.52-1.16,7.44l.91,19.71Z" transform="translate(-26.09 -26.4)"/><path class="cls-2" d="M643.62,112.79c1.34-8.07,2.66-13.54-5.11-14.18-2-.18-5.16.28-4.55-3.36,1.21-7.28,37.92-2.81,43.84-1.82,12.91,2.15,24.51,6.35,34.31,16.43,10.25,10.65,15.23,25.62,12.49,42.07-5.41,32.59-35.47,47.92-60.88,43.7-11.29-1.88-22.49-4.39-33.79-6.26-2.42-.4-5.21-.22-7.77-.64-1.74-.29-3.07-1.49-2.65-4s2.46-2.35,4.29-2.54c9-.94,8.88-3.56,10.65-14.17l9.18-55.22Zm13.64,55.11c-1.76,10.6-3.85,19.84,7.31,21.7,8.88,1.47,18.14-3.49,24.39-11.23,6.37-7.56,10.37-19.09,12-29.22,3.49-21-2.59-45.14-22.5-48.45-9.68-1.61-10.23.9-12,11.66l-9.23,55.54Z" transform="translate(-26.09 -26.4)"/><path class="cls-2" d="M771,158.08c-1.77,4.47-3,6.91,1.41,8.67,2.66,1.06,8.24,3.26,10.88,3.62,3.85.66,6.67-2,9.22-5.49,1.27-1.74,3.34-4.37,5.62-3.47,2,.8,1.83,2.8,1,4.88-1.9,4.07-3.68,8.55-5.58,12.62-1.66,4.17-3.18,8.75-4.58,13-.77,1.94-2.17,4-4.31,3.12-6.09-2.41,4-15-9.41-20.29l-5.57-1.86c-4.3-1.36-4.88.83-6.47,4.86l-6.91,17.45c-1.48,3.73-3.54,9.29-2.75,13.23.85,4.13,4.62,6.83,8,8.19,8.87,3.52,18,2.3,25.78-5.48,1.59-1.79,4.09-4.42,6.37-3.51,2,.8,2.38,2.15,1.43,4.53a71.48,71.48,0,0,1-3.67,6.31l-6.12,11.38c-.84,1.74-1.44,2.53-3.09,1.88-9.38-3.72-18.52-8-27.9-11.74-12.16-4.82-24.57-9-36.74-13.87-1.77-.7-2.86-1.65-2-3.89.95-2.39,3.2-2.53,4.84-2.22,9.27,1.77,10.2-1.31,13.74-10.26l21-52.94c3.49-8.79,5.7-13.27-1.83-18-1.53-.95-3.64-2.65-3.17-3.84,1-2.38,2.69-3.08,4.46-2.37,7.61,3,14.72,6.52,22.33,9.53,13.18,5.22,26.6,9.85,39.9,15.12,2.79,1.11,1.15,3.39.09,6.07l-4.79,12.08c-.88,2.24-1.45,4.77-4.36,3.62-1.9-.76-2.1-3.59-2.33-5.59a39.29,39.29,0,0,0-2.76-10.06c-1.54-3.89-5.41-5.59-8.84-6.95-2.15-.86-9.12-3.62-11.56-3-1.93.44-3.4,4.52-4.12,6.31L771,158.08Z" transform="translate(-26.09 -26.4)"/><path class="cls-2" d="M861.9,260.51c-1.14,6.53-2.39,9.72,1.87,14.19,1.11,1.29,1.8,2.5.58,4.38-1.48,2.29-3.6,1.3-5.09.34-3.21-2.07-6.13-4.34-9.34-6.41s-6.47-3.8-9.67-5.87c-2.64-1.7-1.82-3.47-1.11-6.83l5.38-31.46c.6-3.44,1.79-10.3,1.17-13.38-.25-1.88-1.65-3-3-3.86-2.17-1.41-2.73.72-4.48,3.41L826.62,233c-5.14,8-7.68,10.89-1.34,16.9,1.31,1.23,3.23,3,1.67,5.47-1.31,2-2.92,1.75-4.4.79-6-3.85-11.34-8.08-17.29-11.93-5.5-3.55-11.35-6.56-16.85-10.11-1.6-1-2.4-2.31-1.1-4.33s3.55-1.72,5.1-1.1c8.52,3.4,9.65.89,15.31-7.87l31-48c5.14-7.95,8.25-11.28,2.14-17.14-1.32-1.23-3.58-2.5-2.1-4.79s3.09-2,4.81-.91c5.27,3.41,10.19,7.35,15.46,10.75,8.94,5.77,18,10.85,26.81,16.55,4.92,3.18,9.87,7.33,11.62,13.43,1.83,6.72.41,14.2-3.85,20.8-8.35,12.93-21.72,12.52-32.26,7.23,6.09,4.89,5.51,11.58,4.25,19.55l-3.66,22.26Zm-13.44-61.38c-2.17,3.37-4.6,5.62-1.5,7.62,3.43,2.22,7.53,3.91,12.05,3.2,5.46-.67,10.69-4.74,13.91-9.73,5.57-8.63,6.3-19.8-1.72-25-1.72-1.11-5.34-2.3-6.89-.63a67.89,67.89,0,0,0-4.09,6.33l-11.75,18.19Z" transform="translate(-26.09 -26.4)"/><path class="cls-2" d="M919.92,230.36c6.73-7.1,10.2-9.56,5.08-16.85-1-1.36-2.83-3.35-1-5.33s3.09-1.27,4.48,0c5.14,4.88,9.64,10,14.79,14.91,4.75,4.5,9.94,8.54,14.59,12.95,1.39,1.31,2.14,2.7.38,4.56s-3.56.6-5-.3c-7.94-5.1-9.65-2.3-17,5.5L897,287.28c-5.85,6.17-9.37,11.46-2.24,18.21,14.35,13.6,28-.41,32,3.34,1.58,1.5.89,2.83-.65,4.46-4.31,4.54-10.12,8.09-14.83,12.47-3.29,3.07-3.6,1.22-6-1-7.52-7.13-14.6-14.72-22.11-21.85-7.72-7.32-16.08-14.36-23.79-21.68-1.38-1.31-2.15-2.48-.5-4.23s4-1.27,5.44-.38c7.74,4.91,9.21,2.76,16.39-4.8l39.29-41.43Z" transform="translate(-26.09 -26.4)"/><path class="cls-2" d="M1005.4,298.94c5.41-1.56,7.83-3.13,11,1.29,2.63,3.65,1,4.66-1.69,8.62L968,377.27a53.07,53.07,0,0,0-4.63,7.56c-1.25,2.92-1.31,4.48.15,6.78,1.23,2,3.14,3.79.15,6-2.6,1.88-4.32-.23-5.44-1.78-3.36-4.64-6-9.44-9.22-13.86-4-5.52-8.35-10.45-12.19-15.76-1.12-1.55-2.3-3.72.18-5.51,4.41-3.19,6.37,7.17,11,3.79a20.39,20.39,0,0,0,4.14-4.67l8-11.15c3.51-4.73,3.49-4.2.61-8.18L950.32,326c-2.8-3.87-2.3-3.72-7.41-2-4.23,1.54-9.82,3.39-13.59,6.12-9.23,6.67,4.27,13.57-1.58,17.8-2.34,1.69-4.25-.13-5.37-1.67-2.47-3.42-4.77-7.15-7.25-10.58s-5.29-6.77-7.77-10.2c-1.2-1.66-2.08-3.71.26-5.4s3.66-.13,5,1.12c3,2.74,4,3.66,8.74,2.78,4.15-.82,12.35-3.72,16.88-5.13l22.33-6.89,44.89-12.93Zm-43.95,19.15a25.64,25.64,0,0,0-4.49,1.73c-1.82,1.32.38,3.26,1.1,4.25l6.95,9.61c.56.78,2.12,4,3.68,2.9a26.55,26.55,0,0,0,2.53-3.34l17-23.36-26.72,8.21Z" transform="translate(-26.09 -26.4)"/><path class="cls-2" d="M1059.17,433c2.94-1.28,7.79-3.39,10-5.55,2.93-2.91,2.87-5.86,2.06-8.93-.63-2.25-2.66-4.5.58-5.9s4.28,1.41,5.11,3.28c1.63,3.75,2.91,7.5,4.55,11.25s3.51,7.24,5.08,10.87c.81,1.88,1.08,3.69-1.41,4.78-3.53,1.54-4.35-3.16-5.57-5.16-3.44-5.49-10.17-1.67-15.9.83L994,468.81c-4.12,1.79-6.5,3.57-8.35-.68-1.36-3.12,1-6.09,2.91-9l51-80.94L991,399.33c-3.53,1.54-11.18,4.87-13.88,7.09-3.87,3.17-3.61,6.18-2.43,9.68.61,1.82,2.43,5.19-.8,6.6-2.5,1.09-4-.66-4.72-2.4-1.74-4-2.79-8-4.53-12s-4.07-7.74-5.76-11.62c-.76-1.75-.73-3.69,1.62-4.72,3.23-1.41,4.3,1.84,5.32,3.78,1.34,2.68,3,3.74,6.69,3.33,5.16-.61,12.84-4.26,17.84-6.43l45.73-19.91c5.74-2.5,12.57-4.88,10.29-11.32-.72-2.07-2.27-4.81,1-6.22,2.64-1.15,3.73,1.35,4.49,3.1l9.58,22c2.17,5,1.72,4.75-1.48,9.86l-36.49,58.42L1059.17,433Z" transform="translate(-26.09 -26.4)"/><path class="cls-2" d="M1074.15,475.52c8-1.46,13.64-2.06,11.62-9.59-.52-2-2-4.76,1.63-5.42,7.26-1.32,15.43,34.75,16.5,40.65,2.33,12.88,2.3,25.22-3.89,37.84-6.57,13.25-19,23-35.4,26-32.51,5.89-57.07-17.22-61.67-42.58-2-11.27-3.45-22.65-5.5-33.92-.44-2.42-1.55-5-2-7.53-.32-1.74.36-3.39,2.89-3.85s3,1.52,3.84,3.18c3.92,8.15,6.35,7.16,16.92,5.24l55.08-10ZM1026.87,507c-10.57,1.92-20,3.07-18,14.21,1.6,8.85,9.4,15.89,18.8,19.18,9.27,3.45,21.47,3.31,31.57,1.48,21-3.81,41.62-17.66,38-37.52-1.75-9.66-4.3-9.33-15-7.39l-55.39,10Z" transform="translate(-26.09 -26.4)"/><path class="cls-2" d="M1090.74,634.55c-2.56,0-6.1.17-6-2.82,0-2.32,2.3-3.1,4.39-3.61,9-2.43,17.59-6.38,17.74-15.38.12-7.09-4.87-15.49-14.17-15.65-8.5-.15-11.82,6.48-14.17,12.3l-2.84,6.9c-5.37,13.54-13.72,24.18-32.32,23.86a36.64,36.64,0,0,1-25.48-11.34c-6.78-7.2-9.36-16.11-9.21-25.24.12-6.54,2.22-17.14,5.68-22.95,2.64-4.32,4.72-3.87,10-3.78l8.82.15c2.56,0,8.67-.4,8.61,2.87s-4.88,3.87-7.62,4.51c-5.15,1.14-9.5,2-13.41,5.23-4.39,3.74-5.93,9-6,14.08-.15,8.59,5.14,18.63,16.68,18.83,13,.22,17-11.57,21.2-20,5.47-10.68,12.91-23.78,28.95-23.51,21.17.36,32.06,20.32,31.8,36-.08,4.77-1.84,13.47-4.47,17.64-1.65,2.56-4.21,2.11-7.26,2.06l-10.91-.18Z" transform="translate(-26.09 -26.4)"/><path class="cls-2" d="M1066.9,686.84c-4.72-.91-7.35-1.7-8.26,3-.54,2.81-1.68,8.7-1.54,11.36.06,3.9,3.21,6.17,7.1,8,1.94.93,4.91,2.48,4.45,4.89-.41,2.13-2.41,2.3-4.61,1.88-4.35-1.12-9.08-2-13.44-3.16-4.41-.85-9.18-1.5-13.64-2.09-2-.4-4.31-1.39-3.86-3.66,1.24-6.43,15.45,1.19,18.21-13l.8-5.81c.54-4.48-1.72-4.64-6-5.46l-18.43-3.58c-3.94-.76-9.79-1.76-13.51-.25-3.9,1.6-5.86,5.8-6.56,9.42-1.82,9.37,1.06,18.11,10.15,24.32,2,1.23,5.1,3.21,4.63,5.61-.41,2.14-1.67,2.73-4.19,2.24a69.57,69.57,0,0,1-6.88-2.44L999,714.23c-1.86-.5-2.76-.94-2.42-2.69,1.92-9.9,4.47-19.69,6.39-29.59,2.5-12.85,4.35-25.81,6.84-38.66.37-1.87,1.1-3.13,3.46-2.66,2.52.48,3.07,2.68,3.08,4.35,0,9.44,3.16,9.77,12.61,11.61l55.91,10.83c9.29,1.8,14.09,3.15,17.33-5.11.64-1.67,1.93-4.07,3.19-3.82,2.52.49,3.52,2.07,3.16,3.95-1.55,8-3.69,15.67-5.24,23.7-2.7,13.91-4.77,28-7.49,42-.57,2.95-3.12,1.76-6,1.21l-12.75-2.47c-2.37-.45-5-.55-4.36-3.62.38-2,3.14-2.72,5.05-3.32a38.94,38.94,0,0,0,9.38-4.57c3.54-2.23,4.5-6.34,5.2-10,.45-2.27,1.87-9.64.84-11.92-.79-1.82-5.08-2.51-7-2.88l-19.36-3.76Z" transform="translate(-26.09 -26.4)"/><path class="cls-2" d="M987.61,769.85c12.75-4.45,28.83-2.18,41.69,4.72a56.73,56.73,0,0,1,26.3,29.72c5.09,13.25,4.06,25.68-2.06,37.1-12.24,22.83-41.08,35.21-69.92,19.75-27.43-14.7-35.74-44.68-23.7-67.15,5.35-10,16.09-20.16,27.69-24.14ZM991,838.5c16.82,9,48.42,17.3,58-.48,8.25-15.38-12.22-32.54-26.64-40.27a81.56,81.56,0,0,0-31-9.67c-10.68-.78-22.3,1.2-27.07,10.09-8.31,15.5,12.37,32.62,26.79,40.34Z" transform="translate(-26.09 -26.4)"/><path class="cls-2" d="M901.24,906.4c-6.31-2-9.31-3.7-14.32-.1-1.43.92-2.72,1.43-4.41,0-2.07-1.78-.8-3.75.36-5.08,2.49-2.89,5.14-5.47,7.63-8.36s4.66-5.89,7.15-8.78c2.05-2.37,3.69-1.32,6.92-.15L935,893.56c3.32,1.07,10,3.19,13.08,3,1.89,0,3.17-1.22,4.24-2.46,1.7-2-.33-2.81-2.76-4.91L933.4,875.26c-7.16-6.18-9.73-9.11-16.55-3.66-1.41,1.14-3.46,2.78-5.64.9-1.83-1.57-1.33-3.13-.18-4.47,4.64-5.37,9.58-10.11,14.2-15.48,4.28-5,8.06-10.33,12.34-15.28,1.24-1.45,2.63-2.07,4.45-.49s1.21,3.75.38,5.2c-4.54,8-2.2,9.44,5.69,16.25l43.24,37.3c7.16,6.18,10,9.74,16.68,4.48,1.4-1.13,3-3.19,5-1.41s1.57,3.33.23,4.88c-4.09,4.75-8.68,9.08-12.77,13.83-6.95,8-13.23,16.32-20.09,24.26-3.83,4.44-8.62,8.76-14.9,9.65-6.9.88-14.12-1.56-20.07-6.7-11.66-10.06-9.4-23.23-2.71-32.95-5.68,5.36-12.22,3.85-19.95,1.51l-21.54-6.7Zm62.64-4.83c-3-2.63-4.93-5.34-7.33-2.55-2.67,3.09-4.91,6.93-4.84,11.49-.08,5.51,3.23,11.24,7.72,15.12,7.78,6.7,18.74,9,25,1.74,1.34-1.55,3-5,1.58-6.74a71.14,71.14,0,0,0-5.71-4.92l-16.4-14.14Z" transform="translate(-26.09 -26.4)"/><path class="cls-2" d="M922.12,969.9c4.88,6.56,7.9,11.32,13.76,6.17,1.54-1.35,3.38-3.91,5.57-1,4.41,5.93-24.29,29.25-29.11,32.83-10.5,7.81-21.58,13.24-35.64,13.31-14.78,0-29-6.81-39-20.2-19.71-26.52-9.9-58.8,10.79-74.17,9.19-6.83,18.76-13.15,27.95-20,2-1.47,3.78-3.61,5.86-5.15,1.42-1.06,3.2-1.18,4.73.88s0,3.41-1.15,4.85c-5.57,7.14-3.6,8.88,2.81,17.5l33.39,44.93ZM873,941.48c-6.41-8.62-11.62-16.55-20.7-9.79-7.22,5.37-10.07,15.48-8.84,25.35,1,9.84,6.56,20.71,12.68,28.95,12.72,17.12,34.3,29.47,50.49,17.43,7.88-5.86,6.45-8-.05-16.75L873,941.48Z" transform="translate(-26.09 -26.4)"/><path class="cls-2" d="M801.15,1030.25c-2-4.38-2.88-7-7.23-5-2.6,1.19-8.06,3.68-10.15,5.34-3.15,2.31-3.17,6.2-2.43,10.45.37,2.12.83,5.44-1.41,6.46-2,.9-3.28-.62-4.21-2.66-1.61-4.2-3.61-8.58-5.22-12.78-1.87-4.09-4.11-8.35-6.22-12.32-.87-1.9-1.37-4.32.74-5.27,6-2.71,8,13.28,21.15,7.29l5.21-2.73c4-2.16,2.78-4.09,1-8l-7.78-17.08c-1.67-3.65-4.25-9-7.63-11.15-3.57-2.25-8.13-1.41-11.49.12-8.68,4-14.14,11.38-13.92,22.38.19,2.38.35,6-1.89,7-2,.91-3.19.22-4.26-2.11a71.46,71.46,0,0,1-2-7l-4-12.29c-.67-1.81-.82-2.8.79-3.53,9.18-4.19,18.63-7.79,27.81-12,11.91-5.43,23.56-11.44,35.47-16.88,1.74-.79,3.18-.91,4.18,1.27s-.4,4.06-1.76,5c-7.7,5.45-6.13,8.25-2.13,17l23.61,51.81c3.92,8.61,5.62,13.31,14.22,11.15,1.75-.45,4.44-.79,5,.38,1.07,2.33.36,4.07-1.38,4.86-7.44,3.39-14.9,6.09-22.34,9.48-12.91,5.88-25.55,12.35-38.57,18.28-2.73,1.24-3.23-1.52-4.43-4.15l-5.39-11.82c-1-2.19-2.43-4.35.42-5.65,1.86-.85,4,1,5.64,2.19a39.4,39.4,0,0,0,9.17,5c3.87,1.59,7.79,0,11.13-1.54,2.11-1,8.93-4.08,10.2-6.23,1-1.7-.9-5.58-1.7-7.34l-8.18-18Z" transform="translate(-26.09 -26.4)"/><path class="cls-2" d="M679.32,1082.3c.7,3.13,1.86,8.29,3.55,10.87,2.31,3.42,5.21,3.92,8.38,3.7,2.33-.19,4.91-1.76,5.69,1.68.74,3.29-2.19,3.95-4.18,4.39-4,.9-7.92,1.45-11.91,2.35s-7.78,2.07-11.63,2.94c-2,.45-3.83.37-4.43-2.29-.84-3.75,3.92-3.68,6.12-4.5,6-2.34,3.55-9.67,2.18-15.78l-16.66-74.18c-1-4.38-2.28-7,2.24-8.06,3.33-.75,5.79,2.15,8.28,4.55l69.88,65.35-11.6-51.64c-.84-3.75-2.67-11.89-4.35-15-2.38-4.39-5.38-4.71-9-4.22-1.9.26-5.55,1.41-6.33-2-.6-2.66,1.39-3.76,3.25-4.18,4.26-1,8.39-1.23,12.65-2.18s8.38-2.54,12.5-3.47c1.86-.41,3.77,0,4.33,2.48.78,3.45-2.63,3.88-4.71,4.51-2.89.81-4.25,2.27-4.54,6-.37,5.18,1.76,13.41,3,18.73L742.88,1071c1.37,6.1,2.42,13.27,9.18,12.25,2.17-.32,5.15-1.33,5.93,2.12.63,2.82-2,3.41-3.89,3.83l-23.41,5.26c-5.32,1.2-5,.79-9.41-3.31l-50.49-46.85,8.55,38Z" transform="translate(-26.09 -26.4)"/><path class="cls-3" d="M978.41,600c0,209.14-169.54,378.67-378.68,378.67S221.06,809.17,221.06,600,390.59,221.36,599.72,221.36,978.41,390.91,978.41,600Z" transform="translate(-26.09 -26.4)"/><path class="cls-2" d="M679.16,823.29c-112.62,155.25,149.69,163.25,16.42-25.63-22.68-32.14-59-70.92-86.74-101.09-98.61-107.43,81.61-118.29,11.43-9.47l9.5,12c77.8-135.52-134.91-114.6-40.59-2.36C615.76,728.37,732,844.11,720,899.42c-11.75,54.31-98.48,33.58-35.87-66.05Z" transform="translate(-26.09 -26.4)"/><polygon class="cls-2" points="566.67 692.49 575.34 703.36 518.49 768.16 509.36 758.7 566.67 692.49"/><path class="cls-2" d="M711.2,805.21l-6.11-12.53c66.54-62.68,77.58-138.81,77.1-180.86l2.69-.71c23.27,39.51,124,77.41,102.87,10.42l6.11-6.93c27.1,31.07-10,93-101.14,16.78h0C796.11,715.9,787.37,739.9,711.2,805.21Z" transform="translate(-26.09 -26.4)"/><path class="cls-2" d="M507.16,821.87c-37.22,42.25-31.25,79.76-20.87,97.78,10.27,17.82,53.65,32.09,66.65-17.88,21.1-81.13-53-146.4-66.06-163.07-10.76-13.71-51.64-47.56-59.63-121.92-.21-2-3.22.74-3.22.74-6,9.66-36.55,26.24-82.43,27.61-32.72,1-47.93,63.15,15.73,58.58l-.45-7.08c-50.62,3.2-34.52-45.52-4.52-45.62,45.91-.17,55.41-13.89,62.91-16.55,0,0,3.1-2.78,3.23-.74,4.65,73.5,44.25,112.89,55,126.61,13.08,16.66,80,85.25,69.61,132.79-11,50.43-46,32.42-51.47,15.82-5.63-17.23-5.35-46.84,23.18-77.49l-7.65-9.57" transform="translate(-26.09 -26.4)"/><path class="cls-4" d="M634,320.39A27.08,27.08,0,1,1,607,293.3,27.09,27.09,0,0,1,634,320.39Z" transform="translate(-26.09 -26.4)"/><path class="cls-2" d="M618.5,332.49c-3.06,4.46-10.45,9.7-20.88,9.7-.38,0,19,5.77,28.74-9.7Z" transform="translate(-26.09 -26.4)"/><path class="cls-2" d="M628.43,327.53a21,21,0,0,0,.18-9h-6.14a21.06,21.06,0,0,1-1.49,9Z" transform="translate(-26.09 -26.4)"/><path class="cls-2" d="M627.64,313.59c-2.08-9.16-10.26-12.85-10.26-12.85l1.74,2c1.41,1.63,3,5.75,3.56,10.83Z" transform="translate(-26.09 -26.4)"/><path class="cls-5" d="M604.44,299.87" transform="translate(-26.09 -26.4)"/><path class="cls-5" d="M473.83,391.39a6.46,6.46,0,1,0-6.46-6.46A6.45,6.45,0,0,0,473.83,391.39Z" transform="translate(-26.09 -26.4)"/><path class="cls-5" d="M473.83,384.93" transform="translate(-26.09 -26.4)"/><path class="cls-5" d="M459.56,393.56a6.46,6.46,0,1,0-6.45-6.45A6.45,6.45,0,0,0,459.56,393.56Z" transform="translate(-26.09 -26.4)"/><path class="cls-5" d="M459.56,387.11" transform="translate(-26.09 -26.4)"/><ellipse class="cls-5" cx="421.69" cy="369.69" rx="6.45" ry="6.45"/><path class="cls-5" d="M447.79,396.09" transform="translate(-26.09 -26.4)"/><ellipse class="cls-5" cx="416.24" cy="383.26" rx="6.78" ry="6.78"/><path class="cls-5" d="M442.33,409.66" transform="translate(-26.09 -26.4)"/><circle class="cls-5" cx="416.24" cy="398.49" r="6.78"/><path class="cls-5" d="M442.33,424.89" transform="translate(-26.09 -26.4)"/><path class="cls-5" d="M448.14,446.45a7.12,7.12,0,1,0-7.11-7.11A7.13,7.13,0,0,0,448.14,446.45Z" transform="translate(-26.09 -26.4)"/><path class="cls-5" d="M448.14,439.34" transform="translate(-26.09 -26.4)"/><path class="cls-5" d="M457.1,459.77a7.11,7.11,0,1,0-7.12-7.11A7.11,7.11,0,0,0,457.1,459.77Z" transform="translate(-26.09 -26.4)"/><path class="cls-5" d="M457.1,452.65" transform="translate(-26.09 -26.4)"/><path class="cls-5" d="M466.4,472.48a7.12,7.12,0,1,0-7.12-7.13A7.11,7.11,0,0,0,466.4,472.48Z" transform="translate(-26.09 -26.4)"/><path class="cls-5" d="M466.4,465.35" transform="translate(-26.09 -26.4)"/><ellipse class="cls-5" cx="504.52" cy="343.46" rx="5.53" ry="5.53"/><path class="cls-5" d="M530.61,369.86" transform="translate(-26.09 -26.4)"/><path class="cls-5" d="M519.65,379.5a5.53,5.53,0,1,0-5.54-5.52A5.52,5.52,0,0,0,519.65,379.5Z" transform="translate(-26.09 -26.4)"/><path class="cls-5" d="M519.65,374" transform="translate(-26.09 -26.4)"/><path class="cls-5" d="M510.81,388.47a6.13,6.13,0,1,0-6.14-6.13A6.12,6.12,0,0,0,510.81,388.47Z" transform="translate(-26.09 -26.4)"/><path class="cls-5" d="M510.81,382.35" transform="translate(-26.09 -26.4)"/><ellipse class="cls-5" cx="478.7" cy="367.67" rx="6.78" ry="6.77"/><path class="cls-5" d="M504.8,394.08" transform="translate(-26.09 -26.4)"/><path class="cls-5" d="M505.11,415.21a6.77,6.77,0,1,0-6.77-6.78A6.77,6.77,0,0,0,505.11,415.21Z" transform="translate(-26.09 -26.4)"/><path class="cls-5" d="M505.11,408.43" transform="translate(-26.09 -26.4)"/><path class="cls-5" d="M512.14,429.07a7.11,7.11,0,1,0-7.12-7.12A7.12,7.12,0,0,0,512.14,429.07Z" transform="translate(-26.09 -26.4)"/><path class="cls-5" d="M512.14,421.95" transform="translate(-26.09 -26.4)"/><path class="cls-5" d="M520.52,442.31a7.11,7.11,0,1,0-7.11-7.11A7.12,7.12,0,0,0,520.52,442.31Z" transform="translate(-26.09 -26.4)"/><path class="cls-5" d="M520.52,435.2" transform="translate(-26.09 -26.4)"/><circle class="cls-5" cx="503.52" cy="421.29" r="7.11"/><path class="cls-5" d="M529.62,447.7" transform="translate(-26.09 -26.4)"/><path class="cls-5" d="M542.75,372.88a5.53,5.53,0,1,0-5.54-5.54A5.54,5.54,0,0,0,542.75,372.88Z" transform="translate(-26.09 -26.4)"/><path class="cls-5" d="M542.75,367.35" transform="translate(-26.09 -26.4)"/><ellipse class="cls-5" cx="528.99" cy="338.19" rx="5.54" ry="5.53"/><path class="cls-5" d="M555.08,364.6" transform="translate(-26.09 -26.4)"/><path class="cls-5" d="M565.93,366.45a4.42,4.42,0,1,0-4.44-4.42A4.42,4.42,0,0,0,565.93,366.45Z" transform="translate(-26.09 -26.4)"/><path class="cls-5" d="M565.93,362" transform="translate(-26.09 -26.4)"/><circle class="cls-5" cx="549.6" cy="333.15" r="4.43"/><path class="cls-5" d="M575.69,359.55" transform="translate(-26.09 -26.4)"/><circle class="cls-5" cx="558.55" cy="328.5" r="4.43"/><path class="cls-5" d="M584.65,354.91" transform="translate(-26.09 -26.4)"/><path class="cls-6" d="M480,394.23c-31.93-7.76-34.72,24.43-23.56,41.83,7.74,12.1,28.19,27.59,18.59,40.91" transform="translate(-26.09 -26.4)"/><path class="cls-5" d="M486.76,483.2c6.53-21.41-14.67-42.8-20.53-51.95-7.63-11.91-7-33.31,13.71-28.92" transform="translate(-26.09 -26.4)"/><path class="cls-5" d="M526,365.73c-48.73-7.14-55.86,37.79-36.86,62.42,12.62,16.36,31.83,38.91,32.41,47.89" transform="translate(-26.09 -26.4)"/><path class="cls-6" d="M525.12,368c-38.91.21-40.33,33.55-26.38,52.44,10,13.52,22.07,28.55,29.41,41" transform="translate(-26.09 -26.4)"/><path class="cls-5" d="M593.12,344c1.5,7.42-14.4,40.68-18,49.27-10.53,25.41,4.91,67.15,17.94,72.11" transform="translate(-26.09 -26.4)"/><path class="cls-6" d="M599.59,346.43c-1.76,6.93-7.13,39.91-9.51,47.23-7.8,24.13.21,61,8.65,64" transform="translate(-26.09 -26.4)"/><path class="cls-7" d="M533.74,394.63a5,5,0,1,0-5-5A5,5,0,0,0,533.74,394.63Z" transform="translate(-26.09 -26.4)"/><path class="cls-7" d="M533.74,389.66" transform="translate(-26.09 -26.4)"/><path class="cls-7" d="M545.22,393.48a5.64,5.64,0,1,0-5.64-5.65A5.65,5.65,0,0,0,545.22,393.48Z" transform="translate(-26.09 -26.4)"/><path class="cls-7" d="M545.22,387.83" transform="translate(-26.09 -26.4)"/><path class="cls-7" d="M557,391.12a5.11,5.11,0,1,0-5.11-5.11A5.12,5.12,0,0,0,557,391.12Z" transform="translate(-26.09 -26.4)"/><path class="cls-7" d="M557,386" transform="translate(-26.09 -26.4)"/><path class="cls-7" d="M567.38,388.07a4.87,4.87,0,1,0-4.88-4.87A4.86,4.86,0,0,0,567.38,388.07Z" transform="translate(-26.09 -26.4)"/><path class="cls-7" d="M567.38,383.21" transform="translate(-26.09 -26.4)"/><path class="cls-7" d="M576.58,383.19a4.43,4.43,0,1,0-4.42-4.43A4.43,4.43,0,0,0,576.58,383.19Z" transform="translate(-26.09 -26.4)"/><path class="cls-7" d="M576.58,378.77" transform="translate(-26.09 -26.4)"/><path class="cls-5" d="M586,368.87c-18,10.79-35.21,10.91-45.32,12.7-22.59,4-17.32,20.1-7.52,31.42,8.34,9.62,23.36,32.38,15.26,48.84" transform="translate(-26.09 -26.4)"/><path class="cls-6" d="M589.86,359.27c-9.74,10.17-41.68,15-48.13,15.36-27.62,1.32-33.82,25.24-20.8,41.3,9.28,11.46,21.38,27.89,19.52,40" transform="translate(-26.09 -26.4)"/><path class="cls-5" d="M525.57,392.07c8.05,7.74,44.93.61,55.47-11.78" transform="translate(-26.09 -26.4)"/><path class="cls-5" d="M526.5,402.29c5.18,5.74,37,3.27,48-7.13" transform="translate(-26.09 -26.4)"/><path class="cls-5" d="M491.64,503c1.52-1.19,1.44-3.85-.18-6s-4.19-2.84-5.72-1.66-1.45,3.85.17,6S490.11,504.16,491.64,503Z" transform="translate(-26.09 -26.4)"/><path class="cls-7" d="M488.69,499.17" transform="translate(-26.09 -26.4)"/><path class="cls-8" d="M484.71,497.42s-9-6.82-14-17c-4.83-10,2.17-7.13,5.26-3.41s3.73,5.58,3.73,5.58l-1.55-3.71h0s5.89-7.67,7.43,7.12c.16,1.55.93-.94.93-.94s.93-7.43,5.27-2.17c5.23,6.34-.42-7.91,5.59-3.41a33.37,33.37,0,0,1,10.22,12.09s2,8.85-7.44,5.27c-3.42-1.31-4.34-2.48-4.34-2.48s.36,1.25,4.34,2.48c4.39,1.35,1.87,6.5,0,6.81a9.48,9.48,0,0,1-5.88.62c-3.72-.62-3.08-.63-3.08-.63" transform="translate(-26.09 -26.4)"/><path class="cls-8" d="M543.76,484.17c.73,4.2,2.36,7.34,5.52,8.75,9.82,4.35,12.87-6.17,8.13-8.23s-5.26-2.7,0,0c7.89,4.05,6-8.64,5-13.53-.76-3.81-2.82-5.67-4.88-2.83a48.63,48.63,0,0,1-4.75,5.5s5.43-5.48,3.49-7.49c-2.81-2.91-5.7-2.63-7.08.84a45.35,45.35,0,0,1-4.28,8.12,66.46,66.46,0,0,0,4.28-8.12c2.06-4.94-3.18-8.55-4-5.31s-1.49,6.2-1.49,6.2,3.16-9.35-.46-11.16c-1.47-.74-4.67-.49-7.26.1-4.78,1.08-5.28,1.75-7.09,3.4-3.35,3.26,5.4,9.93,5.4,9.93a18,18,0,0,1-4.58-4.33c-1.93-2.73-4.85,2.75-.71,6.13,4.53,3.7,9.54,6.38,8,5.6a51.39,51.39,0,0,1-8-5.6c-2.86-2.42-5.65-1.33-6.65,2.6-.61,2.46,6.59,5,6.59,5a47.65,47.65,0,0,1-6.76-2.61c-3.16-1.55-5,1.51-3.79,5.22,1.62,5.21,6.57,16.42,11.62,9.14,3.36-4.86,3.21-4,0,0-3.06,3.85,5.37,11.05,8.93,3.19,1.21-2.67,1.64-6.77,2.39-10.32" transform="translate(-26.09 -26.4)"/><path class="cls-5" d="M504.23,526.53A33.42,33.42,0,0,1,511,551" transform="translate(-26.09 -26.4)"/><path class="cls-5" d="M553.16,538.76a5.28,5.28,0,0,0,4.94-5.58V533a5.28,5.28,0,0,0-5.59-4.93l-10.83.66a5.27,5.27,0,0,0-4.93,5.58v.15a5.28,5.28,0,0,0,5.58,4.94Z" transform="translate(-26.09 -26.4)"/><path class="cls-5" d="M547.43,533.75" transform="translate(-26.09 -26.4)"/><path class="cls-5" d="M555.83,541.85c2.9-.18,6.36-3.91,6.17-6.81l-.06-4.31c-.19-2.92-4.86-6-7.76-5.86L539.34,526c-2.92.17-6.36,3.92-6.18,6.82l.08,4c.18,2.9,5.77,6.05,8.68,5.87Z" transform="translate(-26.09 -26.4)"/><path class="cls-5" d="M547.43,533.75" transform="translate(-26.09 -26.4)"/><path class="cls-5" d="M573.34,536.79a4.38,4.38,0,1,0-4.38-4.38A4.39,4.39,0,0,0,573.34,536.79Z" transform="translate(-26.09 -26.4)"/><path class="cls-5" d="M573.34,532.41" transform="translate(-26.09 -26.4)"/><path class="cls-5" d="M573.34,541.39a9,9,0,1,0-9-9A9,9,0,0,0,573.34,541.39Z" transform="translate(-26.09 -26.4)"/><path class="cls-5" d="M573.34,532.41" transform="translate(-26.09 -26.4)"/><path class="cls-5" d="M521.58,540.52a4.38,4.38,0,1,0-4.38-4.39A4.38,4.38,0,0,0,521.58,540.52Z" transform="translate(-26.09 -26.4)"/><path class="cls-5" d="M521.58,536.13" transform="translate(-26.09 -26.4)"/><ellipse class="cls-5" cx="495.49" cy="509.73" rx="8.98" ry="8.98"/><path class="cls-5" d="M521.58,536.13" transform="translate(-26.09 -26.4)"/><line class="cls-5" x1="547.87" y1="470.71" x2="547.87" y2="487.12"/><line class="cls-5" x1="519.05" y1="473.81" x2="519.05" y2="487.44"/><line class="cls-5" x1="490.53" y1="476.96" x2="490.53" y2="490.23"/><line class="cls-5" x1="562.44" y1="481.55" x2="562.44" y2="486.66"/><line class="cls-5" x1="536.09" y1="482.17" x2="536.09" y2="487.12"/><line class="cls-5" x1="480.52" y1="484.19" x2="480.61" y2="490.84"/><line class="cls-5" x1="503.25" y1="484.65" x2="503.25" y2="488.67"/><line class="cls-5" x1="475.66" y1="486.2" x2="475.66" y2="493.17"/><line class="cls-5" x1="574.68" y1="475.24" x2="574.68" y2="486.97"/><line class="cls-5" x1="557.48" y1="480.31" x2="557.48" y2="486.51"/><line class="cls-5" x1="542.76" y1="476.59" x2="542.6" y2="486.81"/><line class="cls-5" x1="524.93" y1="480.31" x2="524.93" y2="487.12"/><line class="cls-5" x1="552.83" y1="476.75" x2="552.83" y2="486.66"/><line class="cls-5" x1="514.17" y1="476.02" x2="514.39" y2="488.05"/><line class="cls-5" x1="496.73" y1="481.55" x2="496.73" y2="489.29"/><line class="cls-5" x1="485.55" y1="479.17" x2="485.58" y2="491.15"/><line class="cls-5" x1="568.62" y1="480" x2="568.62" y2="486.81"/><line class="cls-5" x1="529.58" y1="482.48" x2="529.58" y2="487.44"/><line class="cls-5" x1="508.82" y1="482.11" x2="508.82" y2="487.75"/><path class="cls-5" d="M607.25,526l-9.59.06a6.59,6.59,0,0,0-6.6,6.59v.18a6.58,6.58,0,0,0,6.58,6.59l9.61-.06" transform="translate(-26.09 -26.4)"/><path class="cls-5" d="M607.33,522.11l-12.15.14c-3.64,0-8.75,2.94-8.75,6.58v6.5c0,3.64,5.11,7.83,8.44,7.83l12.39-.06" transform="translate(-26.09 -26.4)"/><path class="cls-5" d="M615.8,294.54c-3.48-3.76-7.56-20.27-4.66-19.78.93.16,12.25.78,16.73,4.5v-15c-5.42,2.79-12.35,5.8-16.73,4.34-.93-.31-.47-11.15,5.58-18.59l-9,.17h-9.92c6,7.44,6.51,18.28,5.57,18.59-4.38,1.46-11.31-1.55-16.74-4.34v15c4.5-3.72,15.82-4.34,16.74-4.5,2.93-.49-.17,15.75-4.67,19.3" transform="translate(-26.09 -26.4)"/><path class="cls-5" d="M740.67,391.22a6.46,6.46,0,1,1,6.45-6.45A6.45,6.45,0,0,1,740.67,391.22Z" transform="translate(-26.09 -26.4)"/><path class="cls-5" d="M740.67,384.77" transform="translate(-26.09 -26.4)"/><path class="cls-5" d="M754.93,393.38a6.45,6.45,0,1,1,6.46-6.45A6.44,6.44,0,0,1,754.93,393.38Z" transform="translate(-26.09 -26.4)"/><path class="cls-5" d="M754.93,386.93" transform="translate(-26.09 -26.4)"/><path class="cls-5" d="M766.72,402.38a6.45,6.45,0,1,1,6.44-6.45A6.45,6.45,0,0,1,766.72,402.38Z" transform="translate(-26.09 -26.4)"/><path class="cls-5" d="M766.72,395.92" transform="translate(-26.09 -26.4)"/><circle class="cls-5" cx="746.07" cy="383.09" r="6.78"/><path class="cls-5" d="M772.16,409.49" transform="translate(-26.09 -26.4)"/><path class="cls-5" d="M772.16,431.5a6.78,6.78,0,1,1,6.78-6.77A6.77,6.77,0,0,1,772.16,431.5Z" transform="translate(-26.09 -26.4)"/><path class="cls-5" d="M772.16,424.73" transform="translate(-26.09 -26.4)"/><circle class="cls-5" cx="740.26" cy="412.77" r="7.12"/><path class="cls-5" d="M766.35,439.17" transform="translate(-26.09 -26.4)"/><ellipse class="cls-5" cx="731.3" cy="426.09" rx="7.11" ry="7.11"/><path class="cls-5" d="M757.39,452.49" transform="translate(-26.09 -26.4)"/><circle class="cls-5" cx="722" cy="438.79" r="7.11"/><path class="cls-5" d="M748.1,465.19" transform="translate(-26.09 -26.4)"/><path class="cls-5" d="M683.89,375.24a5.54,5.54,0,1,1,5.54-5.54A5.54,5.54,0,0,1,683.89,375.24Z" transform="translate(-26.09 -26.4)"/><path class="cls-5" d="M683.89,369.7" transform="translate(-26.09 -26.4)"/><circle class="cls-5" cx="668.76" cy="347.41" r="5.53"/><path class="cls-5" d="M694.85,373.81" transform="translate(-26.09 -26.4)"/><path class="cls-5" d="M703.68,388.32a6.13,6.13,0,1,1,6.13-6.14A6.14,6.14,0,0,1,703.68,388.32Z" transform="translate(-26.09 -26.4)"/><path class="cls-5" d="M703.68,382.18" transform="translate(-26.09 -26.4)"/><path class="cls-5" d="M709.7,400.69a6.78,6.78,0,1,1,6.77-6.78A6.77,6.77,0,0,1,709.7,400.69Z" transform="translate(-26.09 -26.4)"/><path class="cls-5" d="M709.7,393.91" transform="translate(-26.09 -26.4)"/><path class="cls-5" d="M709.38,415.06a6.78,6.78,0,1,1,6.77-6.78A6.78,6.78,0,0,1,709.38,415.06Z" transform="translate(-26.09 -26.4)"/><path class="cls-5" d="M709.38,408.27" transform="translate(-26.09 -26.4)"/><path class="cls-5" d="M702.35,428.9a7.12,7.12,0,1,1,7.12-7.11A7.11,7.11,0,0,1,702.35,428.9Z" transform="translate(-26.09 -26.4)"/><path class="cls-5" d="M702.35,421.79" transform="translate(-26.09 -26.4)"/><path class="cls-5" d="M694,442.16a7.12,7.12,0,1,1,7.12-7.12A7.13,7.13,0,0,1,694,442.16Z" transform="translate(-26.09 -26.4)"/><path class="cls-5" d="M694,435" transform="translate(-26.09 -26.4)"/><circle class="cls-5" cx="658.78" cy="421.13" r="7.12"/><path class="cls-5" d="M684.88,447.53" transform="translate(-26.09 -26.4)"/><path class="cls-5" d="M671.76,372.72a5.53,5.53,0,1,1,5.52-5.54A5.54,5.54,0,0,1,671.76,372.72Z" transform="translate(-26.09 -26.4)"/><path class="cls-5" d="M671.76,367.18" transform="translate(-26.09 -26.4)"/><path class="cls-5" d="M659.41,370a5.54,5.54,0,1,1,5.53-5.55A5.54,5.54,0,0,1,659.41,370Z" transform="translate(-26.09 -26.4)"/><path class="cls-5" d="M659.41,364.43" transform="translate(-26.09 -26.4)"/><path class="cls-5" d="M648.57,366.29a4.43,4.43,0,1,1,4.42-4.43A4.42,4.42,0,0,1,648.57,366.29Z" transform="translate(-26.09 -26.4)"/><path class="cls-5" d="M648.57,361.87" transform="translate(-26.09 -26.4)"/><path class="cls-5" d="M638.8,363.82a4.43,4.43,0,1,1,4.43-4.43A4.42,4.42,0,0,1,638.8,363.82Z" transform="translate(-26.09 -26.4)"/><path class="cls-5" d="M638.8,359.39" transform="translate(-26.09 -26.4)"/><circle class="cls-5" cx="603.76" cy="328.34" r="4.42"/><path class="cls-5" d="M629.85,354.74" transform="translate(-26.09 -26.4)"/><path class="cls-6" d="M734.48,394.06c31.93-7.74,34.71,24.43,23.56,41.84-7.76,12.08-28.21,27.58-18.6,40.9" transform="translate(-26.09 -26.4)"/><path class="cls-5" d="M728.33,483c-6.55-21.42,14.66-42.81,20.52-51.94,7.63-11.91,7-33.32-13.71-28.93" transform="translate(-26.09 -26.4)"/><path class="cls-5" d="M687.43,365.41c49.82-7.69,56.77,38,37.77,62.58-12.62,16.37-31.83,38.91-32.41,47.89" transform="translate(-26.09 -26.4)"/><path class="cls-6" d="M689.38,367.83c38.9.21,40.32,33.55,26.38,52.43-10,13.53-23.11,29.35-30.44,41.83" transform="translate(-26.09 -26.4)"/><path class="cls-5" d="M621.38,343.87c-1.49,7.42,14.4,40.69,18,49.27,10.53,25.42-5.2,67.48-18.21,72.44" transform="translate(-26.09 -26.4)"/><path class="cls-6" d="M614.9,346.28c1.77,6.91,7.14,39.89,9.51,47.22,7.8,24.12-.41,61-8.85,64" transform="translate(-26.09 -26.4)"/><path class="cls-7" d="M680.75,394.46a5,5,0,1,1,5-5A5,5,0,0,1,680.75,394.46Z" transform="translate(-26.09 -26.4)"/><path class="cls-7" d="M680.75,389.49" transform="translate(-26.09 -26.4)"/><path class="cls-7" d="M669.27,393.31a5.64,5.64,0,1,1,5.64-5.64A5.63,5.63,0,0,1,669.27,393.31Z" transform="translate(-26.09 -26.4)"/><path class="cls-7" d="M669.27,387.67" transform="translate(-26.09 -26.4)"/><path class="cls-7" d="M657.52,391a5.12,5.12,0,1,1,5.13-5.11A5.12,5.12,0,0,1,657.52,391Z" transform="translate(-26.09 -26.4)"/><path class="cls-7" d="M657.52,385.85" transform="translate(-26.09 -26.4)"/><path class="cls-7" d="M647.11,387.9A4.87,4.87,0,1,1,652,383,4.87,4.87,0,0,1,647.11,387.9Z" transform="translate(-26.09 -26.4)"/><path class="cls-7" d="M647.11,383" transform="translate(-26.09 -26.4)"/><path class="cls-7" d="M637.91,383a4.42,4.42,0,1,1,4.42-4.42A4.42,4.42,0,0,1,637.91,383Z" transform="translate(-26.09 -26.4)"/><path class="cls-7" d="M637.91,378.6" transform="translate(-26.09 -26.4)"/><path class="cls-5" d="M628.46,368.7c18,10.8,35.21,10.93,45.32,12.71,22.57,4,17.3,20.1,7.5,31.4-8.34,9.63-23.35,32.38-15.26,48.84" transform="translate(-26.09 -26.4)"/><path class="cls-6" d="M624.63,359.1c9.75,10.17,41.67,15,48.14,15.36,27.61,1.33,33.81,25.26,20.8,41.31-9.31,11.46-21.38,27.88-19.52,40" transform="translate(-26.09 -26.4)"/><path class="cls-5" d="M688.92,391.89c-8,7.75-44.93.62-55.46-11.77" transform="translate(-26.09 -26.4)"/><path class="cls-5" d="M688,402.13c-5.18,5.75-37,3.27-48-7.12" transform="translate(-26.09 -26.4)"/><path class="cls-5" d="M723.84,502.81c-1.54-1.19-1.45-3.85.18-6s4.18-2.86,5.73-1.67,1.45,3.85-.18,6S725.36,504,723.84,502.81Z" transform="translate(-26.09 -26.4)"/><path class="cls-7" d="M726.78,499" transform="translate(-26.09 -26.4)"/><path class="cls-8" d="M731.14,497.09a58.88,58.88,0,0,0,12.58-16.88c4.83-9.95-2.17-7.12-5.27-3.41s-3.72,5.57-3.72,5.57l1.55-3.71h0s-5.89-7.66-7.43,7.12c-.17,1.53-.93-.93-.93-.93s-.92-7.44-5.27-2.17c-5.23,6.34.42-7.91-5.58-3.41a33.35,33.35,0,0,0-10.22,12.09s-2.55,6.73,7.43,5.27a7.24,7.24,0,0,0,4.33-2.47s-.34,1.24-4.33,2.47c-4.39,1.35-1.87,6.51,0,6.82a9.49,9.49,0,0,0,5.9.61c3.71-.61,3.74-1.13,3.74-1.13" transform="translate(-26.09 -26.4)"/><path class="cls-5" d="M609.91,485.8l.68-.13s1.16.59,4.59,7.88c3.58,7.63,17.35,12.38,23.24-1.24,1.87-4.35-.09-10.72-3.1-18.6-6.5-17,22.23-18.36,15.49.31-2.79,7.75-6.2,8.68-4.65,18.29,2.84,17.6,19.54,9.95,21.7,1.86a93.22,93.22,0,0,0,1.86-9.61s3.23-.68,2.93-.06,0,5.24,2.62,11.36c4.3,10,16.16,10.69,19.56,2.95,3.13-7.12,3.41-18,3.1-19.53-3-14.89,23.54-15.49,15.18,1.87-4.34,9-10.62,9.49-9,18.28,1.54,8.35,12.15,11.15,20.53,6.51h0c-13.64,17.34-24.55-5.27-24.55-5.27-10.85,13.63-21.39,12.69-28.52-3.42,0,0-14.88,26.65-30.05-1.23,0,0-20,30.05-34-6.34C592,526.37,573,496.19,573,496.19c-15.18,27.87-30.05,1.24-30.05,1.24-7.13,16.1-17.67,17-28.52,3.4,0,0-11.16,22.24-24.49,4.66h0c8.36,4.64,18.92,2.47,20.46-5.9,1.63-8.78-4.65-9.28-9-18.27-8.36-17.34,18.17-16.76,15.19-1.86-.31,1.55,0,12.41,3.1,19.52,3.42,7.75,16.39,7.51,18.9-3.1,1.55-6.49,2.77-10.43,2.46-11.05s2.82-.25,2.82-.25,1.47,6.88,2.77,9.76c3.44,7.65,18.86,15.75,21.69-1.86,1.55-9.61-1.85-10.54-4.65-18.28-6.73-18.67,22-17.35,15.49-.31-3,7.88-5,14.25-3.11,18.59,5.89,13.62,20.27,9.13,23.26,1.24,2.8-7.45,4.41-8,4.41-8l.86.3" transform="translate(-26.09 -26.4)"/><path class="cls-8" d="M611,484.93c1.86,3.1,2.8,5.47,5.7,7.37,9,5.88,12.69-2.79,8.37-5.57s-4-1.87-4-1.87,3.09,1.3,4,1.87c7.57,4.59,9.91-9,8-12.4s-2.77-6.2-5.26-3.72a46.78,46.78,0,0,1-5.58,4.65s6.83-3.41,4.65-6.82-5.21-3.51-7.12-.3a38.07,38.07,0,0,1-5.28,6.81,37.54,37.54,0,0,0,5.28-6.81c2.83-4.55-1.24-8.68-3.1-5.9a18.76,18.76,0,0,0-2.49,5.9s6.06-10.08,1.55-11a31.66,31.66,0,0,0-8.4-.94c-2.49,0-3.73.12-8.68,1.11-4.52.9,1.55,11,1.55,11a18.6,18.6,0,0,0-2.48-5.89c-1.86-2.79-5.94,1.35-3.1,5.89a40.37,40.37,0,0,0,5.27,6.81,37.85,37.85,0,0,1-5.27-6.81c-1.93-3.21-5-3.09-7.13.32s4.65,6.81,4.65,6.81a49.09,49.09,0,0,1-5.59-4.65c-2.47-2.48-4,1.66-5.81,5.06s.8,15.23,8.61,11c1.84-1,4-1.87,4-1.87s.32-.92-4,1.87-.62,11.46,8.37,5.57c2.9-1.89,3.67-4.58,5.53-7.68" transform="translate(-26.09 -26.4)"/><path class="cls-5" d="M607.57,512.88c14.08-.21,98.35,1.1,105.8,7,3.64,2.88.68,8.79-5.28,5.56-10.84-5.89-94.66-7-100.25-7.27,0,0-90.58,1.55-101.43,7.44-6,3.22-8.91-2.7-5.27-5.58,7.43-5.89,91.22-7.9,106.44-7.15" transform="translate(-26.09 -26.4)"/><path class="cls-5" d="M710.27,526.36s-9.3,12-7.13,24.79" transform="translate(-26.09 -26.4)"/><path class="cls-5" d="M607.4,552.78c6.82-.63,82.1,1.78,89.84,3s12.71-4.32,2.16-5.57c-9.73-1.14-76.19-3.23-92.31-3s-82.29,2-92,3.18c-10.53,1.24-5.57,6.81,2.18,5.57S600.58,552.15,607.4,552.78Z" transform="translate(-26.09 -26.4)"/><path class="cls-5" d="M661.33,538.6a5.29,5.29,0,0,1-4.94-5.59v-.16a5.25,5.25,0,0,1,5.58-4.93l10.82.66a5.27,5.27,0,0,1,4.94,5.59l0,.16a5.26,5.26,0,0,1-5.57,4.93Z" transform="translate(-26.09 -26.4)"/><path class="cls-5" d="M667.06,533.59" transform="translate(-26.09 -26.4)"/><path class="cls-5" d="M658.67,541.68c-2.91-.17-6.36-3.92-6.17-6.82l.07-4.31c.18-2.9,4.85-6.05,7.75-5.86l14.83,1.12c2.92.17,6.36,3.91,6.18,6.81l-.07,4c-.18,2.9-5.78,6.05-8.69,5.87Z" transform="translate(-26.09 -26.4)"/><path class="cls-5" d="M667.06,533.59" transform="translate(-26.09 -26.4)"/><path class="cls-5" d="M641.16,536.63a4.38,4.38,0,1,1,4.38-4.38A4.38,4.38,0,0,1,641.16,536.63Z" transform="translate(-26.09 -26.4)"/><path class="cls-5" d="M641.16,532.25" transform="translate(-26.09 -26.4)"/><path class="cls-5" d="M641.16,541.24a9,9,0,1,1,9-9A9,9,0,0,1,641.16,541.24Z" transform="translate(-26.09 -26.4)"/><path class="cls-5" d="M641.16,532.25" transform="translate(-26.09 -26.4)"/><path class="cls-5" d="M693.21,541.27a4.37,4.37,0,1,1,4.38-4.38A4.38,4.38,0,0,1,693.21,541.27Z" transform="translate(-26.09 -26.4)"/><path class="cls-5" d="M693.21,536.89" transform="translate(-26.09 -26.4)"/><path class="cls-5" d="M693.21,545.88a9,9,0,1,1,9-9A9,9,0,0,1,693.21,545.88Z" transform="translate(-26.09 -26.4)"/><path class="cls-5" d="M693.21,536.89" transform="translate(-26.09 -26.4)"/><line class="cls-5" x1="581.48" y1="463.71" x2="581.48" y2="486.48"/><line class="cls-5" x1="614.44" y1="470.54" x2="614.44" y2="486.96"/><line class="cls-5" x1="643.27" y1="473.64" x2="643.27" y2="487.26"/><line class="cls-5" x1="671.77" y1="477.08" x2="671.77" y2="490.06"/><line class="cls-5" x1="599.87" y1="481.38" x2="599.87" y2="486.03"/><line class="cls-5" x1="626.22" y1="482.01" x2="626.22" y2="486.96"/><line class="cls-5" x1="682.09" y1="484.21" x2="682.09" y2="491.9"/><line class="cls-5" x1="659.07" y1="484.48" x2="659.07" y2="488.5"/><line class="cls-5" x1="687.04" y1="485.8" x2="687.04" y2="493.46"/><line class="cls-5" x1="587.48" y1="475.04" x2="587.48" y2="487.12"/><line class="cls-5" x1="604.83" y1="480.15" x2="604.83" y2="486.34"/><line class="cls-5" x1="619.56" y1="476.28" x2="619.71" y2="486.65"/><line class="cls-5" x1="637.37" y1="480.15" x2="637.37" y2="486.96"/><line class="cls-5" x1="609.18" y1="476.74" x2="609.18" y2="486.8"/><line class="cls-5" x1="647.91" y1="475.48" x2="647.91" y2="487.89"/><line class="cls-5" x1="665.58" y1="481.38" x2="665.58" y2="489.13"/><line class="cls-5" x1="676.72" y1="478.43" x2="676.72" y2="490.98"/><line class="cls-5" x1="593.68" y1="479.85" x2="593.68" y2="486.65"/><line class="cls-5" x1="632.74" y1="482.31" x2="632.74" y2="487.26"/><line class="cls-5" x1="653.49" y1="481.99" x2="653.49" y2="488.63"/><path class="cls-5" d="M607.25,526l9.58-.09a6.58,6.58,0,0,1,6.6,6.57v.18a6.61,6.61,0,0,1-6.59,6.61l-9.6.09" transform="translate(-26.09 -26.4)"/><path class="cls-5" d="M607.33,522.11l12,0c3.65,0,8.75,2.93,8.75,6.57l0,6.5c0,3.64-5.11,7.83-8.45,7.83l-12.39.11" transform="translate(-26.09 -26.4)"/><path class="cls-5" d="M607.39,486.27a6.35,6.35,0,1,0-6.36-6.36A6.36,6.36,0,0,0,607.39,486.27Z" transform="translate(-26.09 -26.4)"/><path class="cls-5" d="M607.39,479.91" transform="translate(-26.09 -26.4)"/><line class="cls-5" x1="555.57" y1="303.68" x2="606.08" y2="303.68"/><polyline class="cls-5" points="573.85 268.35 573.85 289.74 554.33 289.74"/><polyline class="cls-5" points="589.34 268.66 589.34 289.43 607.62 289.43"/><path class="cls-5" d="M773.91,409.36" transform="translate(-26.09 -26.4)"/><path class="cls-9" d="M542.45,484.27c2.29-.33,3.84-2.78,3.44-5.47s-2.58-4.6-4.87-4.26-3.84,2.78-3.44,5.47S540.15,484.61,542.45,484.27Z" transform="translate(-26.09 -26.4)"/><path class="cls-9" d="M541.74,479.4" transform="translate(-26.09 -26.4)"/><path class="cls-9" d="M671.68,484.29c2.3.26,4.42-1.72,4.71-4.42s-1.31-5.1-3.62-5.36-4.42,1.72-4.73,4.42S669.37,484,671.68,484.29Z" transform="translate(-26.09 -26.4)"/><path class="cls-9" d="M672.23,479.4" transform="translate(-26.09 -26.4)"/><path class="cls-8" d="M670,484.17c-.72,4.2-2.36,7.34-5.51,8.75-9.82,4.35-12.87-6.17-8.13-8.23s5.26-2.7,0,0c-7.9,4.05-6-8.64-5-13.53.77-3.81,2.82-5.67,4.87-2.83a48.27,48.27,0,0,0,4.75,5.5s-5.43-5.48-3.49-7.49c2.82-2.91,5.71-2.63,7.09.84a45,45,0,0,0,4.85,8.4,36.12,36.12,0,0,1-4.85-8.4c-2.07-4.94,3.17-8.55,4-5.31s1.5,6.2,1.5,6.2-3.16-9.35.45-11.16c1.47-.74,4.68-.49,7.26.1,4.79,1.08,5.27,1.75,7.09,3.4,3.35,3.26-5.39,9.93-5.39,9.93A18.08,18.08,0,0,0,684,466c1.94-2.73,4.86,2.75.71,6.13a51.18,51.18,0,0,1-7.68,5.11,42.46,42.46,0,0,0,7.68-5.11c2.86-2.42,5.66-1.33,6.65,2.6.62,2.46-6.59,5-6.59,5a48,48,0,0,0,6.77-2.61c3.16-1.55,4.94,1.51,3.79,5.22-1.63,5.21-6.56,16.42-11.62,9.14-3.35-4.86-3.21-4,0,0,3.07,3.85-5.37,11.05-8.93,3.19-1.2-2.67-1.63-6.77-2.39-10.32" transform="translate(-26.09 -26.4)"/><path class="cls-8" d="M613.44,370.86a6,6,0,1,1-5.94-6A6,6,0,0,1,613.44,370.86Z" transform="translate(-26.09 -26.4)"/><path class="cls-8" d="M613.44,358a6,6,0,1,1-5.94-6A6,6,0,0,1,613.44,358Z" transform="translate(-26.09 -26.4)"/><path class="cls-8" d="M613.44,383.87a6,6,0,1,1-5.94-6A6,6,0,0,1,613.44,383.87Z" transform="translate(-26.09 -26.4)"/><path class="cls-8" d="M614.17,398.07a7,7,0,1,1-7-7A7,7,0,0,1,614.17,398.07Z" transform="translate(-26.09 -26.4)"/><path class="cls-8" d="M614.05,413.56a6.75,6.75,0,1,1-6.75-6.76A6.75,6.75,0,0,1,614.05,413.56Z" transform="translate(-26.09 -26.4)"/><path class="cls-8" d="M615.66,429.74a8.49,8.49,0,1,1-8.48-8.5A8.49,8.49,0,0,1,615.66,429.74Z" transform="translate(-26.09 -26.4)"/><path class="cls-8" d="M614.05,446.53a6.75,6.75,0,1,1-6.75-6.76A6.75,6.75,0,0,1,614.05,446.53Z" transform="translate(-26.09 -26.4)"/></svg>